<svg xmlns="http://www.w3.org/2000/svg" version="1.1" xmlns:xlink="http://www.w3.org/1999/xlink" xmlns:svgjs="http://svgjs.dev/svgjs" width="2000" height="272" viewBox="0 0 2000 272"><g transform="matrix(1,0,0,1,-1.2121212121212466,1.0679809098188286)"><svg viewBox="0 0 396 54" data-background-color="#ffffff" preserveAspectRatio="xMidYMid meet" height="272" width="2000" xmlns="http://www.w3.org/2000/svg" xmlns:xlink="http://www.w3.org/1999/xlink"><g id="tight-bounds" transform="matrix(1,0,0,1,0.2400000000000091,-0.21202562180226892)"><svg viewBox="0 0 395.52 54.42405124360452" height="54.42405124360452" width="395.52"><g><svg viewBox="0 0 473.0991077958969 65.0990344002515" height="54.42405124360452" width="395.52"><g><rect width="5.149735179314194" height="57.38993822127435" x="58.948390471781174" y="3.854548089488574" fill="#000000" opacity="1" stroke-width="0" stroke="transparent" fill-opacity="1" class="rect-qz-0" data-fill-palette-color="primary" rx="1%" id="qz-0" data-palette-color="#000000"></rect></g><g transform="matrix(1,0,0,1,77.57910779589693,3.9973091298400014)"><svg viewBox="0 0 395.52 57.104416140571495" height="57.104416140571495" width="395.52"><g id="textblocktransform"><svg viewBox="0 0 395.52 57.104416140571495" height="57.104416140571495" width="395.52" id="textblock"><g><svg viewBox="0 0 395.52 57.104416140571495" height="57.104416140571495" width="395.52"><g transform="matrix(1,0,0,1,0,0)"><svg width="395.52" viewBox="3.1 -36.38912895616001 255.83 36.939128956160005" height="57.104416140571495" data-palette-color="#000000"><path d="M9.35-32.6Q9.6-31.25 10.53-28.85 11.45-26.45 12.3-24.65L12.3-24.65Q13-23.45 14.18-20.78 15.35-18.1 15.85-16.55L15.85-16.55Q16.15-15.75 16.7-14.55L16.7-14.55 17.45-12.75 18.5-10.4Q19.95-13.25 20.6-14.55L20.6-14.55 23.85-21.05 26.1-25.55Q27.85-29.15 28.45-30.2L28.45-30.2Q29.4-32.15 30.45-33.83 31.5-35.5 31.95-35.5L31.95-35.5Q32.35-35.5 32.35-34.85L32.35-34.85Q32.35-34.25 32.1-33.25L32.1-33.25 31.9-32Q31.7-30.65 31.7-20L31.7-20Q31.7-17.65 31.58-14.3 31.45-10.95 31.35-9.85L31.35-9.85Q31.25-8.55 31.25-6L31.25-6 31.3-1.15 31.3-0.9Q31.3-0.3 31-0.4L31-0.4 30.9-0.4Q30.65-0.4 30.33-0.35 30-0.3 29.65-0.3L29.65-0.3Q29.45-0.35 29.38-0.55 29.3-0.75 29.3-1.25L29.3-1.25 29.3-4.2Q29.3-9.3 29.4-10.2L29.4-10.2Q29.5-11.25 29.63-14.1 29.75-16.95 29.75-18.7L29.75-18.7Q29.7-19.15 29.8-21.5L29.8-21.5 29.85-23.3 29.95-26.9Q29.6-26.4 29.35-25.85L29.35-25.85Q28.85-25 28.4-24L28.4-24 27.9-23Q27.05-21.35 25.95-19.13 24.85-16.9 24.05-15.35L24.05-15.35Q23.15-13.55 21.78-10.73 20.4-7.9 19.65-6.25L19.65-6.25Q18.35-3.2 18.15-3.2L18.15-3.2Q18-3.2 17.7-3.7 17.4-4.2 17.3-4.35L17.3-4.35Q16.95-4.9 16.2-6.68 15.45-8.45 15-9.8L15-9.8Q14.7-10.7 12.4-14.85L12.4-14.85Q10.6-18.3 10.55-18.45L10.55-18.45Q10.05-19.45 9.2-21.8L9.2-21.8Q8.65-23.05 8.35-24L8.35-24 8.25-21.8 8.15-18.4 8.05-8.55 8-0.75Q8-0.3 7.75-0.2 7.5-0.1 7.15-0.13 6.8-0.15 6.6-0.15L6.6-0.15 5.5-0.1Q4.6 0 4.2 0L4.2 0Q3.45 0 3.33-0.33 3.2-0.65 3.25-1.7L3.25-1.7Q3.25-3.35 3.2-4.85L3.2-4.85 3.1-11Q3.1-12.4 3.2-13.93 3.3-15.45 3.35-16.65L3.35-16.65Q3.6-20.25 3.6-21.7L3.6-21.7 3.7-31.1 3.65-33.8Q3.65-35.55 3.9-35.8L3.9-35.8Q4.05-35.95 4.25-35.95L4.25-35.95Q4.4-35.95 4.7-35.85 5-35.75 5.45-35.8L5.45-35.8Q5.9-35.85 6.7-35.85L6.7-35.85Q7.65-35.85 8.1-35.75L8.1-35.75Q8.55-35.6 8.75-35.02 8.95-34.45 9.1-33.73 9.25-33 9.35-32.6L9.35-32.6ZM59.3-33.25L59.3-32.7Q59.3-31.55 59.1-31.55L59.1-31.55Q58.8-31.55 58.42-31.63 58.05-31.7 57.5-31.7L57.5-31.7 49.5-31.7 43.3-31.75Q43-31.75 41.05-31.6L41.05-31.6 39.9-31.5 39.8-30.15Q39.75-29.4 39.75-27.8L39.75-27.8Q39.75-27 39.85-25.7L39.85-25.7Q39.95-24.5 39.95-23.95L39.95-23.95 39.95-21.95Q39.95-21.15 40-20.7L40-20.7Q40.45-20.65 41.35-20.65L41.35-20.65 43.35-20.65Q43.65-20.65 44.55-20.75L44.55-20.75Q45.85-20.85 46.8-20.85L46.8-20.85Q47.2-20.85 49.6-20.7L49.6-20.7 50.7-20.65Q51.1-20.65 51.85-20.73 52.6-20.8 53.3-20.8L53.3-20.8 54.95-20.75Q56.25-20.65 56.75-20.65L56.75-20.65Q57.3-20.65 57.5-20.7L57.5-20.7 57.8-20.75Q58.15-20.75 58.3-20.53 58.45-20.3 58.4-20.1L58.4-20.1Q58.35-19.75 58.35-19.23 58.35-18.7 58.3-18.3L58.3-18.3Q58.25-17.9 58.15-17.82 58.05-17.75 57.55-17.75L57.55-17.75 55.55-17.95Q51.8-18.3 50.65-18.3L50.65-18.3Q46.4-18.3 44.4-18.15L44.4-18.15Q43.6-18.05 42.65-18.05 41.7-18.05 41.45-18.05L41.45-18.05Q40.5-18.05 40.05-18.1L40.05-18.1 39.9-17.3Q39.8-16.4 39.8-15.7L39.8-15.7Q39.8-15.1 39.9-14.3L39.9-14.3Q40-13.5 40-12.9L40-12.9 40.05-6.95 40-4.45Q39.95-4 39.95-3.2L39.95-3.2Q40.6-3.15 41.85-3.15L41.85-3.15Q42.9-3.1 45.1-3.1L45.1-3.1 47.8-3.05Q48.65-3 50.4-3L50.4-3Q51.45-3 53.15-3.1L53.15-3.1 55.25-3.15Q56.45-3.15 57.25-3.1 58.05-3.05 58.45-3.05L58.45-3.05Q58.85-3.05 58.92-2.9 59-2.75 59-2.25L59-2.25Q59-1.9 58.95-1.53 58.9-1.15 58.9-0.7L58.9-0.7Q58.9-0.35 58.65-0.23 58.4-0.1 57.85-0.1L57.85-0.1Q57.3-0.1 56.95-0.15L56.95-0.15Q55.6-0.3 51.5-0.3L51.5-0.3Q49-0.3 47.9-0.25L47.9-0.25Q47.05-0.2 45.1-0.2L45.1-0.2 40.45-0.25Q39.65-0.3 38.55-0.3L38.55-0.3Q37.85-0.3 37.62-0.48 37.4-0.65 37.4-1.05L37.4-1.05 37.45-1.85Q37.5-2.05 37.5-2.3L37.5-2.3Q37.5-2.45 37.45-3.03 37.4-3.6 37.4-5.15L37.4-5.15Q37.4-6.65 37.3-10.05L37.3-10.05Q37.15-12.85 37.15-15.45L37.15-15.45Q37.15-16.55 37.4-21.8L37.4-21.8Q37.45-22.85 37.5-23.9 37.55-24.95 37.55-25.8L37.55-25.8Q37.55-31.6 37.4-33.45L37.4-33.45Q37.25-34.65 38.85-34.65L38.85-34.65Q39.25-34.65 40.15-34.55L40.15-34.55Q40.95-34.45 41.35-34.45L41.35-34.45 44.5-34.55Q47.9-34.75 49.75-34.75L49.75-34.75Q51.9-34.75 55.8-34.65L55.8-34.65Q57.05-34.6 58.45-34.6L58.45-34.6Q59.05-34.6 59.2-34.3 59.35-34 59.32-33.68 59.3-33.35 59.3-33.25L59.3-33.25ZM82.59-34.9Q85.59-32.9 87.42-29.5 89.25-26.1 89.97-22.88 90.7-19.65 90.7-17.8L90.7-17.8Q90.7-14.7 89.72-10.6 88.75-6.5 85.55-2.98 82.34 0.55 76.3 0.55L76.3 0.55Q68 0.55 64.5-9.1L64.5-9.1Q62.95-13.45 62.75-18.8L62.75-18.8Q62.75-23.2 64.59-27.18 66.45-31.15 69.47-33.55 72.5-35.95 75.7-35.95L75.7-35.95Q78.59-35.95 80.02-35.8 81.45-35.65 82.59-34.9L82.59-34.9ZM76.05-2.25Q81.34-2.25 83.95-6.68 86.55-11.1 86.55-17.8L86.55-17.8Q86.55-21.9 85.32-25.38 84.09-28.85 81.87-30.93 79.65-33 76.75-33L76.75-33Q76.5-33 75.42-33 74.34-33 73.55-32.65 72.75-32.3 72.09-31.6L72.09-31.6Q70.45-29.95 69.32-28.58 68.2-27.2 67.07-24.5 65.95-21.8 65.95-18.25L65.95-18.25Q65.95-14.05 66.97-10.43 68-6.8 70.25-4.53 72.5-2.25 76.05-2.25L76.05-2.25ZM106.34-16.75Q106.94-17.05 108.14-19.5L108.14-19.5 108.79-20.7Q108.89-20.9 109.79-22.3L109.79-22.3Q110.04-22.75 110.94-24.13 111.84-25.5 112.04-26.1L112.04-26.1Q112.54-26.9 112.92-27.28 113.29-27.65 113.74-27.65L113.74-27.65Q114.09-27.65 114.22-27.45 114.34-27.25 114.42-26.83 114.49-26.4 114.64-25.95L114.64-25.95Q114.69-25.45 115.09-23.7L115.09-23.7 115.69-20.7Q116.09-19.15 116.64-17.95L116.64-17.95Q116.84-17.4 117.19-16.75L117.19-16.75Q117.29-17.2 117.49-17.65L117.49-17.65 118.09-19.2Q118.14-19.5 118.34-20.13 118.54-20.75 118.64-21.15L118.64-21.15Q119.54-24.15 119.64-24.55L119.64-24.55Q120.04-26.2 121.04-29.43 122.04-32.65 122.44-33.65L122.44-33.65Q122.64-34.5 123.07-34.7 123.49-34.9 123.99-34.88 124.49-34.85 124.69-34.85L124.69-34.85 128.79-34.85Q129.79-34.85 129.79-34.25L129.79-34.25Q129.79-34 129.74-33.77 129.69-33.55 129.64-33.35L129.64-33.35Q129.44-32.85 129.19-31.9L129.19-31.9Q128.54-29.75 127.89-28L127.89-28Q126.89-25 125.69-20.6L125.69-20.6 125.14-18.7 124.04-14.1 122.59-8.15Q121.94-5.95 120.84-3.08 119.74-0.2 119.29-0.2L119.29-0.2Q118.74-0.2 118.34-0.93 117.94-1.65 117.59-2.8L117.59-2.8Q117.14-3.65 116.37-5.85 115.59-8.05 114.99-10.05L114.99-10.05Q114.74-11.15 113.84-13.95L113.84-13.95Q113.54-14.75 113.44-15.15L113.44-15.15 112.39-18.15Q112.14-17.5 112.04-17.35L112.04-17.35Q111.84-16.85 111.62-16.4 111.39-15.95 111.19-15.55L111.19-15.55 107.74-8.8 106.99-7.1Q105.49-3.75 105.14-2.65L105.14-2.65Q104.69-1.5 104.17-0.78 103.64-0.05 103.09-0.05L103.09-0.05Q102.34-0.05 102.09-1.4L102.09-1.4Q101.99-1.65 101.72-2.33 101.44-3 101.04-5.05L101.04-5.05Q100.79-6.35 99.09-13.65L99.09-13.65Q98.84-14.8 98.34-16.82 97.84-18.85 97.74-19.5L97.74-19.5Q97.14-21.9 96.74-23.75L96.74-23.75Q95.24-30.25 94.79-31.8L94.79-31.8Q94.54-32.95 94.54-33.4L94.54-33.4Q94.54-34 94.77-34.2 94.99-34.4 95.49-34.55L95.49-34.55 97.14-34.65Q98.94-34.85 100.14-34.85L100.14-34.85Q101.14-34.85 101.42-34.58 101.69-34.3 101.77-33.9 101.84-33.5 101.84-33.35L101.84-33.35 102.09-32.05Q102.59-29.65 102.74-29L102.74-29 103.59-26.05Q105.04-21.2 105.14-20.55L105.14-20.55Q105.29-20.1 105.49-18.8L105.49-18.8Q105.64-18.05 105.79-17.4 105.94-16.75 106.19-16.75L106.19-16.75 106.34-16.75ZM157.39-33.9Q157.39-33.65 157.31-32.6 157.24-31.55 157.24-30L157.24-30Q157.24-28.6 157.39-26.2L157.39-26.2Q157.39-24.85 155.64-24.85L155.64-24.85 146.84-24.85 146.74-19.7Q146.69-18.85 146.69-15.45L146.69-15.45Q146.69-11.95 146.74-8.65 146.79-5.35 146.79-2.95L146.79-2.95 146.84-0.9 146.84-0.65Q146.84-0.2 146.72-0.1 146.59 0 146.39 0 146.19 0 146.09 0L146.09 0 142.69 0Q142.09 0 141.99-0.2 141.89-0.4 141.89-0.93 141.89-1.45 141.89-1.7L141.89-1.7 142.09-7.9Q142.39-16 142.39-18.3L142.39-18.3Q142.39-19.6 142.29-22.2L142.29-22.2 142.24-24.85Q138.64-24.85 134.94-24.75L134.94-24.75 133.39-24.7Q132.74-24.7 132.49-25.05 132.24-25.4 132.39-25.85L132.39-25.85 132.44-27.1Q132.54-30 132.54-32.45L132.54-32.45Q132.54-33.65 132.49-33.9L132.49-33.9 132.49-34.25Q132.49-34.8 132.72-34.9 132.94-35 133.39-35L133.39-35 138.34-35 141.14-35.05Q143.74-35.15 144.79-35.15L144.79-35.15 147.79-35.1Q151.39-35 153.44-35L153.44-35Q154.94-35 155.39-35.05L155.39-35.05Q156.49-35.1 156.94-34.73 157.39-34.35 157.39-33.9L157.39-33.9ZM180.19-34.9Q183.19-32.9 185.01-29.5 186.84-26.1 187.56-22.88 188.29-19.65 188.29-17.8L188.29-17.8Q188.29-14.7 187.31-10.6 186.34-6.5 183.14-2.98 179.94 0.55 173.89 0.55L173.89 0.55Q165.59 0.55 162.09-9.1L162.09-9.1Q160.54-13.45 160.34-18.8L160.34-18.8Q160.34-23.2 162.19-27.18 164.04-31.15 167.06-33.55 170.09-35.95 173.29-35.95L173.29-35.95Q176.19-35.95 177.61-35.8 179.04-35.65 180.19-34.9L180.19-34.9ZM173.64-2.25Q178.94-2.25 181.54-6.68 184.14-11.1 184.14-17.8L184.14-17.8Q184.14-21.9 182.91-25.38 181.69-28.85 179.46-30.93 177.24-33 174.34-33L174.34-33Q174.09-33 173.01-33 171.94-33 171.14-32.65 170.34-32.3 169.69-31.6L169.69-31.6Q168.04-29.95 166.91-28.58 165.79-27.2 164.66-24.5 163.54-21.8 163.54-18.25L163.54-18.25Q163.54-14.05 164.56-10.43 165.59-6.8 167.84-4.53 170.09-2.25 173.64-2.25L173.64-2.25ZM214.74-32.55Q214.94-32.3 215.86-31.2 216.79-30.1 217.29-28.75 217.79-27.4 217.79-25.85L217.79-25.85Q217.79-21.7 215.36-19.2 212.94-16.7 209.24-15.4L209.24-15.4Q205.24-14.05 200.69-14L200.69-14 200.59-8.55 200.49-1.5Q200.49 0 199.29 0L199.29 0Q198.99 0 198.69-0.05 198.39-0.1 198.19-0.1L198.19-0.1 196.29 0 194.34 0.1Q193.79 0.1 193.59-0.3 193.39-0.7 193.39-1.5L193.39-1.5Q193.39-1.75 193.41-2.45 193.44-3.15 193.44-4.55L193.44-4.55Q193.59-12.2 193.59-12.3L193.59-12.3 193.59-26Q193.59-28 193.79-30.35L193.79-30.35 193.99-33.65Q193.99-34.45 194.16-34.58 194.34-34.7 194.94-34.7L194.94-34.7Q195.34-34.7 197.34-34.9L197.34-34.9Q199.94-35.2 201.49-35.2L201.49-35.2Q205.69-35.2 207.91-35.08 210.14-34.95 211.91-34.38 213.69-33.8 214.74-32.55L214.74-32.55ZM210.54-18Q212.34-18.85 213.19-20.28 214.04-21.7 214.04-24.1L214.04-24.1Q214.04-26 213.64-28.05L213.64-28.05Q213.24-30.1 211.39-31.2 209.54-32.3 206.94-32.65L206.94-32.65Q205.59-32.85 203.74-32.85L203.74-32.85Q202.94-32.85 201.04-32.75L201.04-32.75 200.74-16.6Q202.69-16.55 204.49-16.75L204.49-16.75Q208.59-17.05 210.54-18L210.54-18ZM222.68-35.25Q223.33-35.2 223.96-35.23 224.58-35.25 225.03-35.25L225.03-35.25Q226.13-35.25 226.63-35.2L226.63-35.2Q227.23-35.15 227.48-34.95 227.73-34.75 227.73-34.4L227.73-34.4Q227.73-34.15 227.68-33.85 227.63-33.55 227.58-33.3L227.58-33.3Q227.03-29.05 226.98-24.55L226.98-24.55Q226.93-23.25 226.93-20.55L226.93-20.55 226.98-14.5Q227.03-13.75 227.03-12.95L227.03-12.95 227.08-10.95Q227.18-8.35 227.18-7.1L227.18-7.1Q227.18-6.15 227.13-5.95L227.13-5.95Q227.08-5.75 227.08-4.8L227.08-4.8 227.13-2.05Q227.18-1.45 227.18-0.55L227.18-0.55Q227.23 0.1 226.81 0.28 226.38 0.45 225.68 0.4L225.68 0.4 221.13 0.4Q220.38 0.45 220.18 0.08 219.98-0.3 219.93-1.15L219.93-1.15Q219.83-1.5 220.03-3L220.03-3Q220.23-4.4 220.23-5.4L220.23-5.4Q220.23-5.75 220.58-12.15L220.58-12.15Q220.88-16.85 220.88-17.3L220.88-17.3 220.98-22.2 221.08-26.75 221.18-29.45 221.28-31.25 221.28-33.35Q221.28-35.3 222.28-35.3L222.28-35.3Q222.53-35.3 222.68-35.25L222.68-35.25ZM258.68-1Q258.93-0.5 258.93-0.35L258.93-0.35Q258.93 0.05 258.03 0.05L258.03 0.05 254.43 0.05Q254.23 0.05 254.03-0.3 253.83-0.65 253.68-1 253.53-1.35 253.43-1.6L253.43-1.6Q253.18-2.1 252.51-3.9 251.83-5.7 251.48-6.75L251.48-6.75Q251.33-7.25 250.88-8.22 250.43-9.2 250.23-9.6L250.23-9.6Q250.03-10.2 249.86-10.4 249.68-10.6 249.33-10.6L249.33-10.6Q248.98-10.6 248.46-10.55 247.93-10.5 247.33-10.45L247.33-10.45Q246.93-10.35 244.83-10.35L244.83-10.35Q243.38-10.35 241.98-10.25L241.98-10.25Q241.53-10.2 240.38-10.2L240.38-10.2 237.73-10.25Q237.48-10.25 237.36-10.05 237.23-9.85 237.18-9.58 237.13-9.3 237.08-9.15L237.08-9.15 236.78-7.9Q236.63-7.2 236.41-6.28 236.18-5.35 236.03-4.55L236.03-4.55 235.48-2.4 235.08-0.95Q234.93-0.35 234.81-0.18 234.68 0 234.43 0L234.43 0 231.48 0Q231.23 0 231.23-0.2L231.23-0.2Q231.23-0.3 231.43-0.9L231.43-0.9Q231.83-1.85 232.13-2.8L232.13-2.8Q233.98-9 234.33-10.9L234.33-10.9Q234.78-13.4 236.18-17.35L236.18-17.35Q236.63-19.05 237.03-20.45L237.03-20.45Q237.18-21.15 237.48-22.15L237.48-22.15Q238.43-25.65 239.38-28.7L239.38-28.7 240.63-32.7Q241.03-34.25 241.63-35.9L241.63-35.9Q241.93-36.65 242.33-36.25L242.33-36.25Q242.63-36.05 242.78-35.55 242.93-35.05 242.98-34.85L242.98-34.85Q243.13-34.25 245.63-28.85L245.63-28.85Q246.63-26.8 247.78-23.5L247.78-23.5Q248.28-22.05 250.53-17.25L250.53-17.25Q251.68-14.9 252.03-14L252.03-14Q252.83-12.25 256.33-5.5L256.33-5.5 256.93-4.25Q258.08-1.7 258.68-1L258.68-1ZM245.58-17.5Q245.93-17.55 246.18-17.55 246.43-17.55 246.58-17.6 246.73-17.65 246.73-17.75L246.73-17.75Q246.73-17.85 246.58-18.15L246.58-18.15Q246.33-18.6 245.43-20.68 244.53-22.75 244.18-23.8L244.18-23.8Q243.68-25 243.41-25.8 243.13-26.6 242.98-26.9L242.98-26.9Q242.88-27.15 242.76-27.4 242.63-27.65 242.53-27.8 242.43-27.95 242.33-27.95L242.33-27.95Q242.18-27.95 242.01-27.2 241.83-26.45 241.73-26.05L241.73-26.05Q240.83-23.15 240.43-21.65L240.43-21.65Q240.23-20.9 239.86-19.83 239.48-18.75 239.33-18.35L239.33-18.35Q239.18-17.85 239.18-17.55L239.18-17.55Q239.18-17.25 239.63-17.25L239.63-17.25Q240.68-17.25 242.86-17.32 245.03-17.4 245.58-17.5L245.58-17.5Z" opacity="1" transform="matrix(1,0,0,1,0,0)" fill="#000000" class="wordmark-text-0" data-fill-palette-color="primary" id="text-0"></path></svg></g></svg></g></svg></g></svg></g><g><svg viewBox="0 0 45.467408326979616 65.0990344002515" height="65.0990344002515" width="45.467408326979616"><g><svg xmlns="http://www.w3.org/2000/svg" xmlns:xlink="http://www.w3.org/1999/xlink" version="1.1" x="0" y="0" viewBox="21.498835731890093 9.193317493930227 56.99971220053351 81.61068250606976" enable-background="new 0 0 100 100" xml:space="preserve" height="65.0990344002515" width="45.467408326979616" class="icon-icon-0" data-fill-palette-color="accent" id="icon-0"><path fill="#000000" d="M76.865 27.044c0.25-1.012 0.784-3.489 0.478-5.122-0.111-0.591-0.54-1.704-2.825-4.449l2.016-6.307c0.064-0.201 0.031-0.421-0.09-0.595-0.121-0.173-0.316-0.28-0.527-0.289-1.678-0.076-2.992 0.623-3.856 1.292 0-0.463 0.011-1.016 0.047-1.665 0.011-0.201-0.068-0.397-0.215-0.534-0.148-0.138-0.351-0.202-0.548-0.176-0.292 0.038-0.578 0.096-0.86 0.17-2.04 0.517-4.174 1.918-5.667 3.717-11.277 0.504-13.943 11.935-14.38 14.346-1.108 0.724-4.261 3.13-6.048 7.99-5.258-0.199-10.826 0.991-14.333 3.084-0.428 0.255-0.568 0.81-0.313 1.239 0.169 0.283 0.469 0.44 0.777 0.44 0.064 0 0.129-0.012 0.192-0.026-13.291 10.127-9.071 29.539-6.398 37.993-0.496 0.871-2.03 3.962-0.715 6.923 1.127 2.539 3.987 4.201 8.537 4.945 0.483 0.06 6.482 0.784 13.22 0.784 6.403 0 13.463-0.659 17.102-3.156 0.823 0.116 2.934 0.373 5.416 0.373 1.924 0 4.071-0.155 6.011-0.651 0.24-0.062 0.446-0.22 0.566-0.437 0.12-0.218 0.146-0.475 0.071-0.712-1.116-3.515-2.819-5.127-5.988-5.452 0.262-0.116 0.391-0.209 0.419-0.23 0.108-0.086 0.17-0.215 0.17-0.353 0-0.903-0.8-2.767-3.084-3.141-1.227-4.937-2.026-10.5 0.254-15.777 1.282-0.946 6.45-5.086 7.071-10.77 0.345-3.158-0.777-6.2-3.336-9.049l0.404-4.643c0.346 0.071 0.676 0.11 0.988 0.113 0.003 0 0.007 0 0.01 0 0.03 0 0.059-0.002 0.088-0.004 5.213-0.511 6.844-4.959 6.978-7.24 0.012-0.206-0.046-0.41-0.166-0.578L76.865 27.044zM68.192 79.937c-0.202 0.091-0.575 0.222-1.158 0.336-0.206-0.546-0.468-1.305-0.73-2.231C67.532 78.413 68.069 79.357 68.192 79.937zM71.395 35.112c-0.416-0.011-0.906-0.122-1.457-0.328-0.468-0.173-0.987 0.063-1.163 0.529-0.063 0.169-0.057 0.341-0.021 0.505-0.028 0.075-0.06 0.148-0.068 0.231l-0.491 5.64c-0.022 0.256 0.065 0.509 0.241 0.697 2.374 2.53 3.428 5.191 3.134 7.909-0.268 2.474-1.605 4.663-3.005 6.335-0.06-0.125-0.139-0.24-0.256-0.33-0.396-0.302-0.963-0.229-1.267 0.169-0.91 1.188-1.61 2.409-2.174 3.638-0.159 0.161-0.249 0.362-0.26 0.579-2.83 6.762-1.106 13.68-0.281 16.962 0.66 2.628 1.431 4.287 1.463 4.356 0.154 0.329 0.48 0.557 0.852 0.52 3.278-0.124 4.777 0.671 5.828 3.311-3.081 0.58-6.592 0.367-8.553 0.167 0.812-0.981 1.622-2.262 1.059-3.315-0.743-1.388-3.264-1.366-7.293-0.889 1.521-2.13 4.043-6.604 3.215-12.031-0.86-5.64-5.1-10.669-12.601-14.95-0.322-0.185-0.739-0.073-0.924 0.252-0.186 0.326-0.072 0.739 0.253 0.925 7.117 4.061 11.131 8.76 11.931 13.965 0.944 6.142-2.972 11.131-3.775 12.08-0.269 0.036-0.538 0.071-0.817 0.109-2.017 0.273-4.103 0.554-5.77 0.625-5.388 0.23-11.389-0.282-14.973-0.589-0.909-0.077-1.68-0.143-2.272-0.183-0.382-0.026-0.697 0.257-0.722 0.63-0.026 0.373 0.257 0.697 0.63 0.722 0.585 0.04 1.349 0.105 2.248 0.182 3.617 0.308 9.668 0.825 15.146 0.592 1.729-0.073 3.847-0.358 5.894-0.635 3.24-0.437 8.135-1.099 8.636-0.164 0.027 0.051 0.223 0.54-1.188 2.141-0.108 0.123-0.237 0.236-0.361 0.351-0.197 0.002-0.384 0.054-0.534 0.168-0.001 0.001-0.002 0.001-0.003 0.001-6.557 4.99-29.109 2.271-29.301 2.247-3.869-0.633-6.27-1.938-7.138-3.881-0.56-1.252-0.388-2.602-0.073-3.647 0.307 0.838 0.527 1.373 0.587 1.516 0.145 0.345 0.48 0.553 0.833 0.553 0.116 0 0.235-0.023 0.349-0.071 0.46-0.193 0.676-0.723 0.483-1.183-0.117-0.279-11.545-28.065 4.541-40.061 0.4-0.298 0.483-0.865 0.184-1.264-0.195-0.262-0.505-0.372-0.808-0.344 2.853-1.563 8.03-2.933 13.614-2.59 0.404 0.022 0.785-0.23 0.914-0.621 1.833-5.605 5.777-7.838 5.814-7.859 0.255-0.139 0.428-0.393 0.465-0.681 0.063-0.499 1.596-11.706 11.405-13.08-0.209 0.306-0.337 0.514-0.362 0.555-0.193 0.32-0.09 0.737 0.231 0.93 0.32 0.194 0.737 0.09 0.93-0.231 0.011-0.019 0.431-0.702 1.144-1.59 0.113-0.088 0.206-0.195 0.267-0.326 1.147-1.365 2.903-3.056 4.93-3.642-0.222 3.667-0.514 6.708-0.517 6.741-0.036 0.372 0.237 0.704 0.609 0.739 0.022 0.003 0.044 0.004 0.066 0.004 0.345 0 0.64-0.262 0.674-0.612 0.002-0.024 0.158-1.649 0.329-3.95 0.035-0.03 0.073-0.055 0.102-0.091 0.003-0.004 0.008-0.006 0.011-0.01 0.013-0.018 1.152-1.488 2.962-1.833l-1.726 5.397c-0.042 0.025-0.088 0.037-0.126 0.069-0.382 0.322-0.431 0.891-0.11 1.273 2.238 2.66 2.547 3.59 2.589 3.812 0.249 1.326-0.315 3.864-0.554 4.73-0.072 0.262-0.022 0.544 0.135 0.765l1.514 2.12C76.513 30.97 75.691 34.662 71.395 35.112z" data-fill-palette-color="accent"></path></svg></g></svg></g></svg></g><defs></defs></svg><rect width="395.52" height="54.42405124360452" fill="none" stroke="none" visibility="hidden"></rect></g></svg></g></svg>